name GIL12_xslow1.mot
datacolumns 153
datarows 4
range 1.01666677 1.04166675
endheader

                time	           pelvis_tx	           pelvis_ty	           pelvis_tz	         pelvis_tilt	         pelvis_list	     pelvis_rotation	       hip_flexion_r	     hip_adduction_r	      hip_rotation_r	        knee_angle_r	       ankle_angle_r	    subtalar_angle_r	         mtp_angle_r	       hip_flexion_l	     hip_adduction_l	      hip_rotation_l	        knee_angle_l	       ankle_angle_l	    subtalar_angle_l	         mtp_angle_l	    lumbar_extension	      lumbar_bending	     lumbar_rotation	     ground_force_vx	     ground_force_vy	     ground_force_vz	     ground_force_px	     ground_force_py	     ground_force_pz	     ground_force_vx	     ground_force_vy	     ground_force_vz	     ground_force_px	     ground_force_py	     ground_force_pz	     ground_torque_x	     ground_torque_y	     ground_torque_z	     ground_torque_x	     ground_torque_y	     ground_torque_z	    ground_marker_px	    ground_marker_py	    ground_marker_pz	    ground_marker_px	    ground_marker_py	    ground_marker_pz	    ground_marker_px	    ground_marker_py	    ground_marker_pz	    ground_marker_px	    ground_marker_py	    ground_marker_pz	    ground_marker_px	    ground_marker_py	    ground_marker_pz	    ground_marker_px	    ground_marker_py	    ground_marker_pz	    ground_marker_px	    ground_marker_py	    ground_marker_pz	    ground_marker_px	    ground_marker_py	    ground_marker_pz	    ground_marker_px	    ground_marker_py	    ground_marker_pz	    ground_marker_px	    ground_marker_py	    ground_marker_pz	    ground_marker_px	    ground_marker_py	    ground_marker_pz	    ground_marker_px	    ground_marker_py	    ground_marker_pz	    ground_marker_px	    ground_marker_py	    ground_marker_pz	    ground_marker_px	    ground_marker_py	    ground_marker_pz	    ground_marker_px	    ground_marker_py	    ground_marker_pz	    ground_marker_px	    ground_marker_py	    ground_marker_pz	    ground_marker_px	    ground_marker_py	    ground_marker_pz	    ground_marker_px	    ground_marker_py	    ground_marker_pz	    ground_marker_px	    ground_marker_py	    ground_marker_pz	    ground_marker_px	    ground_marker_py	    ground_marker_pz	    ground_marker_px	    ground_marker_py	    ground_marker_pz	    ground_marker_px	    ground_marker_py	    ground_marker_pz	    ground_marker_px	    ground_marker_py	    ground_marker_pz	    ground_marker_px	    ground_marker_py	    ground_marker_pz	    ground_marker_px	    ground_marker_py	    ground_marker_pz	    ground_marker_px	    ground_marker_py	    ground_marker_pz	    ground_marker_px	    ground_marker_py	    ground_marker_pz	    ground_marker_px	    ground_marker_py	    ground_marker_pz	    ground_marker_px	    ground_marker_py	    ground_marker_pz	    ground_marker_px	    ground_marker_py	    ground_marker_pz	    ground_marker_px	    ground_marker_py	    ground_marker_pz	    ground_marker_px	    ground_marker_py	    ground_marker_pz	    ground_marker_px	    ground_marker_py	    ground_marker_pz	    ground_marker_px	    ground_marker_py	    ground_marker_pz	    ground_marker_px	    ground_marker_py	    ground_marker_pz	    ground_marker_px	    ground_marker_py	    ground_marker_pz	    ground_marker_px	    ground_marker_py	    ground_marker_pz	
          1.01666677	          1.83676100	          0.68772840	         -0.18130453	          3.98499870	         -0.08057845	          3.84551978	          9.83237457	         -3.38502479	         -2.68697476	          3.49171615	        -16.52821922	          0.00000000	          0.00000000	        -24.91073036	          2.78643417	         -5.82452250	         -8.25898933	          3.24184227	          0.00000000	          0.00000000	        -20.02567673	          0.20927319	          7.99015188	        -13.10182453	        116.98872555	         -8.22834999	          1.95821802	          0.00000000	         -0.09820747	         26.65528108	        153.30485027	         -0.68537210	          1.61597461	          0.00000000	         -0.20256342	          0.00000000	          0.05512524	          0.00000000	          0.00000000	          0.10061700	          0.00000000	          1.78904462	          0.61348569	         -0.17330079	          1.79571009	          0.62584472	         -0.12020285	          1.78788745	          0.62677979	         -0.23738328	          1.86895430	          0.33174300	         -0.10949191	          1.68134511	          0.34506601	         -0.21781306	          1.95635676	          0.05387762	         -0.10429640	          1.53572154	          0.09053588	         -0.22077741	          1.83676100	          0.68772840	         -0.18130453	          1.84265435	          0.68702400	         -0.09302516	          1.83086765	          0.68843287	         -0.26958391	          1.70523775	          0.70752764	         -0.12329133	          1.70365012	          0.70523608	         -0.20809622	          1.86927426	          0.33349669	         -0.06352647	          1.67280102	          0.34501606	         -0.26504648	          1.86104035	          0.32683635	         -0.15193360	          1.68099463	          0.34800106	         -0.17617255	          1.95336413	          0.05356013	         -0.07093184	          1.52836251	          0.09511098	         -0.25210091	          1.95693517	          0.05883314	         -0.12997672	          1.52947736	          0.09417606	         -0.18689051	          1.77644205	          1.02235258	         -0.15876555	          1.87347889	          0.94829786	         -0.13687618	          1.85507905	          0.95281911	         -0.22759360	          1.85179591	          0.96376580	         -0.17104864	          1.88662028	          0.82726353	         -0.19028054	          1.95971775	          0.44778198	         -0.13847263	          1.75385523	          0.40006882	         -0.33322075	          1.88105464	          0.48118189	         -0.09003312	          1.77909553	          0.45346943	         -0.25466600	          1.89122307	          0.39409307	         -0.08541460	          1.74592638	          0.37701389	         -0.23198703	          1.95658147	          0.14003055	         -0.00416960	          1.66906357	          0.14370535	         -0.19514041	          1.91829157	          0.19692394	         -0.06276801	          1.64018905	          0.21982241	         -0.21659888	          2.05043840	          0.04248825	         -0.10440262	          1.60268855	          0.03866958	         -0.21606457	
          1.02500010	          1.84217191	          0.68903297	         -0.18042985	          3.53604317	         -0.27612180	          3.44507718	         10.13655281	         -3.19672513	         -3.31162477	          2.83188748	        -15.61302471	          0.00000000	          0.00000000	        -24.61010170	          2.59369469	         -5.84291792	         -8.50958443	          1.77612972	          0.00000000	          0.00000000	        -19.58736038	          1.11964333	          7.74104118	        -13.78287304	        112.60752000	        -11.86181293	          1.95900330	          0.00000000	         -0.09681412	         24.62255521	        141.59533845	         -0.90300663	          1.61661414	          0.00000000	         -0.20212697	          0.00000000	          0.10941235	          0.00000000	          0.00000000	          0.11032979	          0.00000000	          1.79368067	          0.61531746	         -0.17265506	          1.80024695	          0.62774104	         -0.11932512	          1.79318309	          0.62822104	         -0.23655649	          1.87270761	          0.33313614	         -0.10793650	          1.68554699	          0.34639817	         -0.21752077	          1.95623827	          0.05382809	         -0.10346931	          1.53814006	          0.09285817	         -0.22101998	          1.84217191	          0.68903297	         -0.18042985	          1.84749687	          0.68867117	         -0.09205537	          1.83684683	          0.68939477	         -0.26880431	          1.71049631	          0.70999634	         -0.12397621	          1.70953739	          0.70753771	         -0.20881931	          1.87228441	          0.33480904	         -0.06196888	          1.67735088	          0.34633395	         -0.26481581	          1.86330223	          0.32858375	         -0.14901535	          1.68518043	          0.34928623	         -0.17586175	          1.95332015	          0.05348912	         -0.07009837	          1.53078270	          0.09756770	         -0.25232399	          1.95741332	          0.05919633	         -0.12887388	          1.53213537	          0.09654965	         -0.18706308	          1.78262305	          1.02384686	         -0.15716988	          1.87933612	          0.94946128	         -0.13468206	          1.86233032	          0.95491993	         -0.22544688	          1.85816085	          0.96523172	         -0.16900179	          1.89323318	          0.82897115	         -0.18904743	          1.96396160	          0.44847092	         -0.13514063	          1.75908089	          0.40100691	         -0.33255261	          1.88552737	          0.48250869	         -0.08660605	          1.78385508	          0.45463344	         -0.25378793	          1.89410901	          0.39506039	         -0.08208159	          1.75052631	          0.37821954	         -0.23123787	          1.95789170	          0.13998002	         -0.00306848	          1.67190623	          0.14504823	         -0.19536614	          1.92045951	          0.19730505	         -0.06095987	          1.64356291	          0.22137715	         -0.21638632	          2.05028582	          0.04260353	         -0.10347681	          1.60357368	          0.03880313	         -0.21605465	
          1.03333342	          1.84765625	          0.69038963	         -0.17953168	          3.13288021	         -0.43005893	          3.10934305	         10.38159561	         -3.01924300	         -4.23971701	          2.16723585	        -14.74168968	          0.00000000	          0.00000000	        -24.36865044	          2.40482402	         -5.86181498	         -8.71987057	          0.18497512	          0.00000000	          0.00000000	        -19.12180519	          1.96517408	          7.37015343	        -14.26187159	        111.42315071	        -14.45636754	          1.95949683	          0.00000000	         -0.09582492	         22.56099344	        130.04376308	         -0.88150194	          1.61719824	          0.00000000	         -0.20179282	          0.00000000	          0.13478760	          0.00000000	          0.00000000	          0.11852385	          0.00000000	          1.79840422	          0.61716902	         -0.17197958	          1.80497503	          0.62961006	         -0.11843889	          1.79854500	          0.62972230	         -0.23570766	          1.87660170	          0.33448923	         -0.10661688	          1.68977928	          0.34778726	         -0.21729146	          1.95623863	          0.05380801	         -0.10278197	          1.54073691	          0.09517629	         -0.22128879	          1.84765625	          0.69038963	         -0.17953168	          1.85250556	          0.69030493	         -0.09109006	          1.84280705	          0.69047427	         -0.26797330	          1.71589851	          0.71233439	         -0.12441893	          1.71538055	          0.70982873	         -0.20929696	          1.87524462	          0.33600077	         -0.06066176	          1.68188024	          0.34774190	         -0.26463702	          1.86637783	          0.33023465	         -0.14734125	          1.68944144	          0.35063332	         -0.17571780	          1.95332801	          0.05343816	         -0.06941070	          1.53335309	          0.10002770	         -0.25256488	          1.95768058	          0.05954394	         -0.12788208	          1.53493130	          0.09885871	         -0.18730983	          1.78855169	          1.02529943	         -0.15564288	          1.88502264	          0.95065498	         -0.13251242	          1.86948287	          0.95694190	         -0.22319335	          1.86440504	          0.96670812	         -0.16690543	          1.89984584	          0.83067560	         -0.18764207	          1.96838689	          0.44899452	         -0.13143949	          1.76422000	          0.40208063	         -0.33197132	          1.88978076	          0.48353052	         -0.08356338	          1.78864086	          0.45589516	         -0.25304276	          1.89696515	          0.39571145	         -0.07942840	          1.75516522	          0.37954444	         -0.23068589	          1.95910335	          0.13988318	         -0.00217361	          1.67489886	          0.14646839	         -0.19572146	          1.92246497	          0.19782603	         -0.05943038	          1.64735556	          0.22310409	         -0.21653000	          2.05017948	          0.04269028	         -0.10269456	          1.60446310	          0.03890358	         -0.21606512	
          1.04166675	          1.85321736	          0.69174451	         -0.17862096	          2.78023052	         -0.52764618	          2.83582640	         10.54471970	         -2.85645747	         -5.34913111	          1.54359913	        -13.94241810	          0.00000000	          0.00000000	        -24.19747162	          2.24261904	         -5.89790726	         -8.87857533	         -1.52513599	          0.00000000	          0.00000000	        -18.69507408	          2.70601320	          6.90679359	        -14.00527218	        112.09428888	        -15.92759619	          1.95943103	          0.00000000	         -0.09529373	         20.52282309	        118.56590197	         -0.65678641	          1.61777124	          0.00000000	         -0.20154955	          0.00000000	          0.12992700	          0.00000000	          0.00000000	          0.12660251	          0.00000000	          1.80334020	          0.61897695	         -0.17121935	          1.80989408	          0.63137645	         -0.11757205	          1.80398560	          0.63124114	         -0.23486821	          1.88052678	          0.33575645	         -0.10561146	          1.69403231	          0.34922826	         -0.21712431	          1.95635116	          0.05382043	         -0.10230139	          1.54350471	          0.09746943	         -0.22159068	          1.85321736	          0.69174451	         -0.17862096	          1.85767448	          0.69184655	         -0.09013957	          1.84876037	          0.69164246	         -0.26710236	          1.72144008	          0.71448529	         -0.12459514	          1.72116864	          0.71204370	         -0.20949374	          1.87813520	          0.33704293	         -0.05969168	          1.68636501	          0.34923640	         -0.26450798	          1.87028289	          0.33185899	         -0.14700961	          1.69389403	          0.35200840	         -0.17554274	          1.95337832	          0.05341261	         -0.06893606	          1.53606844	          0.10246986	         -0.25283083	          1.95772636	          0.05978577	         -0.12716496	          1.53781784	          0.10120404	         -0.18763176	          1.79432237	          1.02675676	         -0.15416874	          1.89054942	          0.95187455	         -0.13039114	          1.87649155	          0.95887083	         -0.22086415	          1.87052810	          0.96816969	         -0.16476640	          1.90632546	          0.83234274	         -0.18607152	          1.97289145	          0.44933140	         -0.12767944	          1.76922965	          0.40327579	         -0.33149037	          1.89372706	          0.48430884	         -0.08107506	          1.79341221	          0.45719096	         -0.25246105	          1.89984369	          0.39622173	         -0.07766071	          1.75987566	          0.38094378	         -0.23025158	          1.96016753	          0.13974288	         -0.00156100	          1.67802787	          0.14795355	         -0.19620517	          1.92423081	          0.19832824	         -0.05846747	          1.65109754	          0.22494638	         -0.21687959	          2.05011320	          0.04274067	         -0.10214128	          1.60535955	          0.03896709	         -0.21608540	
